<?xml version="1.0" encoding="utf-8"?>
<!-- Generator: Adobe Illustrator 25.3.1, SVG Export Plug-In . SVG Version: 6.00 Build 0)  -->
<svg version="1.1" id="Layer_1" xmlns="http://www.w3.org/2000/svg" xmlns:xlink="http://www.w3.org/1999/xlink" x="0px" y="0px"
	 viewBox="0 0 400 71.1" style="enable-background:new 0 0 400 71.1;" xml:space="preserve">
<style type="text/css">
	.st0{fill:#000000;}
</style>
<g>
	<path class="st0" d="M35.9,54c-4.5,0-9,0-13.5,0c-3,0-4.5-1.5-4.7-4.6c0-0.6,0-1.1,0-1.7c0-8.5,0-17,0-25.6c0-0.9,0-1.7,0.2-2.6
		c0.5-2,1.8-3,4.4-3.2c0.3,0,0.5,0,0.8,0c8.7,0,17.4,0,26.1,0c1.6,0,3.1,0.3,4.2,1.6c0.9,1.1,1.1,2.4,1.1,3.8c0.1,1.7,0,3.3,0,5
		c0,7.1,0,14.2,0,21.2c0,0.6,0,1.1-0.1,1.7c-0.3,3.1-2.3,4.3-4.9,4.3C45,54,40.5,54,35.9,54C35.9,54,35.9,54,35.9,54z M41.9,32.1
		c-0.7,0-1.4,0-2.2,0c-1.2,0-1.9-0.9-1.5-2c0.6-2.2,1.2-4.4,1.9-6.6c0.1-0.5,0.3-1-0.2-1.3c-0.6-0.3-1,0.1-1.3,0.5
		c-3.6,4.6-7.1,9.2-10.7,13.8c-0.2,0.2-0.3,0.7-0.2,0.9c0.1,0.2,0.5,0.3,0.8,0.3c1.2,0,2.3,0,3.5,0c1.7,0,2.4,0.8,1.9,2.5
		c-0.7,2.4-1.4,4.9-2,7.3c-0.1,0.3,0.1,0.9,0.2,1c0.3,0.1,0.7-0.1,1.1-0.2c0.2-0.1,0.3-0.3,0.4-0.5c1.3-1.7,2.6-3.3,3.9-5
		c2.3-3,4.7-6,7-9c0.2-0.3,0.3-0.8,0.5-1.2c-0.4-0.2-0.8-0.4-1.3-0.4C43,32,42.4,32.1,41.9,32.1z"/>
	<path class="st0" d="M117.8,61.4c-3,0-5.7,0-8.6,0c0-11.1,0-22.2,0-33.4c2.8,0,5.6,0,8.5,0c0,0.9,0,1.8,0,3.2
		c2.9-3.5,6.3-5,10.4-4.8c4.2,0.2,7.3,2,9.3,5.9c1.9-2.9,4.4-4.8,7.7-5.5c7.5-1.5,14.2,3,14.6,10.6c0.4,7.9,0.1,15.9,0.1,23.9
		c-2.9,0-5.8,0-8.9,0c0-1.9,0-3.8,0-5.7c0-5.1,0-10.3-0.1-15.4c-0.1-3.6-2.4-5.9-5.5-5.9c-3.5,0-6.4,2.5-6.5,6
		c-0.2,5.4-0.1,10.8-0.1,16.2c0,1.6,0,3.1,0,4.8c-3,0-5.8,0-8.9,0c0-1.3,0-2.6,0-3.9c0-5.6,0-11.3,0-16.9c0-4.3-1.7-6.3-5.4-6.3
		c-4,0-6.6,2.5-6.6,6.5c-0.1,6.2,0,12.4,0,18.6C117.8,60,117.8,60.6,117.8,61.4z"/>
	<path class="st0" d="M69.5,48.8c3.1-0.2,6-0.4,8.8-0.5c2.5,6,8.3,8.3,14,5.7c1.9-0.8,3-2.2,3.2-4.3c0.2-2.1-0.7-3.8-2.6-4.6
		c-3.3-1.4-6.7-2.3-10-3.6c-2.9-1.1-6-2.1-8.4-4c-5.8-4.5-5.2-15,0.8-20.1c5.8-4.9,17.6-5,23.5-0.2c3,2.5,4.7,5.8,5.1,9.9
		c-3.1-0.1-6.2-0.3-9.2-0.4c-1.7-5.7-8.7-5.9-12.2-4.1c-1.9,1-2.8,2.6-2.9,4.7c-0.1,2.1,0.9,3.8,2.7,4.5c2.9,1.2,5.9,2.1,8.8,3.1
		c2.3,0.8,4.7,1.6,6.9,2.7c9.2,4.7,7.8,17.7,0.6,22.2c-6.8,4.3-18.4,3.8-24.4-1.2C71.5,56.2,70,52.8,69.5,48.8z"/>
	<path class="st0" d="M284.6,26.9c-3,0-5.8,0-8.7-0.1c-0.3,0-0.7-0.7-0.9-1.1c-1.3-3.1-4-3.9-6.9-4c-2.8-0.1-5.4,0.5-7,3.1
		c-1.6,2.7-0.9,5.9,1.9,7.2c3.1,1.4,6.6,2.2,9.8,3.6c2.9,1.2,6,2.2,8.3,4.2c6.9,5.7,5,17.4-3.4,21.2c-6.8,3.1-13.8,3-20.4-0.6
		c-4.4-2.4-6.5-6.5-7.2-11.6c3-0.2,5.9-0.4,8.7-0.5c0.2,0.2,0.4,0.4,0.4,0.5c1,6.3,9.6,7.7,14.2,5.1c3.5-2,3.4-6.8-0.3-8.8
		c-2.2-1.2-4.7-1.8-7.2-2.7c-2.2-0.8-4.4-1.4-6.5-2.2c-4.6-1.8-7.7-4.9-8.1-10.1c-0.4-5.8,1.2-10.9,6.4-13.8
		c6.9-3.8,14-3.7,20.8,0.4C282.4,19,284.2,22.6,284.6,26.9z"/>
	<path class="st0" d="M186.1,40.1c-0.4-3.9-1.6-5.7-4.4-6c-3.8-0.4-6-0.5-8.1,3.6c-2.5-0.2-5-0.4-7.7-0.7c0-3.4,1.5-6,4.1-7.8
		c5-3.5,13.9-3.7,19.1-0.4c3.5,2.2,5.2,5.7,5.3,9.6c0.2,7.9,0.1,15.8,0.1,23.7c-2.7,0-5.4,0-8.2,0c0-1.4,0-2.8,0-4.5
		c-0.6,0.5-0.9,0.8-1.2,1.1c-4,4.2-8.8,4.9-14.1,3.2c-4.7-1.5-7.2-5.6-6.9-10.8c0.2-4.6,3.2-8.1,8.3-9.2c3.7-0.8,7.5-1.1,11.3-1.6
		C184.4,40.3,185.2,40.2,186.1,40.1z M186.1,46.5c-3.8,0-7.5,0-11,1.5c-1.6,0.7-2.3,2.1-2.3,3.8c0.1,1.5,0.8,2.6,2.2,3.2
		c2.8,1.1,5.6,0.7,8-1C185.5,52.2,186.5,49.7,186.1,46.5z"/>
	<path class="st0" d="M332.5,40.2c0.4-3.1-0.6-5.2-3.3-5.8c-4.3-1-6.8-0.6-8.7,3.3c-2.5-0.2-4.9-0.5-7.5-0.7c0.1-3.3,1.5-5.9,4-7.8
		c4.8-3.6,13.8-3.7,18.9-0.4c3.7,2.4,5.1,6.1,5.2,10.3c0.2,7.6,0,15.3,0,23.1c-2.8,0-5.5,0-8.3,0c0-1.4,0-2.7,0-3.7
		c-2.2,1.3-4.4,3-6.9,3.8c-6.2,2.1-12.6-0.9-14.4-6.4c-1.9-6-0.2-12.7,9.3-14.3c3.3-0.6,6.6-0.8,9.9-1.2
		C331.3,40.3,331.9,40.2,332.5,40.2z M332.6,46.7c-3.6-0.1-7.1-0.2-10.4,1.2c-1.9,0.8-2.7,2.3-2.5,4.2c0.2,1.8,1.4,2.9,3,3.2
		C328.4,56.4,333.7,52.9,332.6,46.7z"/>
	<path class="st0" d="M390.8,54.4c0,2.5,0,5,0,7.7c-3.5,0.7-7.1,1.2-10.7-0.2c-4-1.7-5.3-5.1-5.4-9.1c-0.1-5.3-0.1-10.5,0-15.8
		c0-1.5-0.5-2-1.9-1.9c-1.3,0.1-2.6,0-4,0c0-2.7,0-5.1,0-7.8c1.9,0,3.8,0,5.8,0c0-2.9,0-5.5,0-8.5c2.9,0,5.7,0,8.7,0
		c0,1.5,0,3.3,0,5c0.1,3.8-0.6,3.4,3.6,3.5c1.2,0,2.5,0,3.8,0c0,2.6,0,5.1,0,7.8c-1.8,0-3.7,0.1-5.5,0c-1.5-0.1-1.9,0.5-1.9,2
		c0.1,4.4,0,8.8,0,13.2c0,3.7,0.9,4.5,4.5,4.5C388.9,54.7,389.8,54.5,390.8,54.4z"/>
	<path class="st0" d="M227.8,35.1c-1.9,0-3.6,0-5.3,0c0-2.6,0-5.1,0-7.8c1.6,0,3.3,0,5.2,0c0-3,0-5.7,0-8.7c3,0,5.9,0,8.9,0
		c0,2.1,0.1,4.3,0,6.5c-0.1,1.6,0.3,2.3,2.1,2.1c1.7-0.2,3.5,0,5.3,0c0,2.6,0,5.1,0,7.8c-2.4,0-4.7,0-7.4,0c0,1.2,0,2.3,0,3.3
		c0,4,0,8,0,12c0,3.5,1.4,4.8,4.9,4.2c0.7-0.1,1.5-0.3,2.4-0.4c0,2.7,0,5.2,0,7.8c-3.2,0.7-6.5,0.9-9.8,0.1c-3.5-0.9-6-3.9-6.2-7.8
		c-0.2-5.6-0.1-11.2-0.2-16.7C227.8,36.8,227.8,36.1,227.8,35.1z"/>
	<path class="st0" d="M287.1,27.3c1.7,0,3.3,0,5.1,0c0-2.8,0-5.5,0-8.4c2.9,0,5.7,0,8.7,0c0,1.7,0,3.6,0,5.6c0,2.9,0,2.9,3,2.9
		c1.4,0,2.9,0,4.4,0c0,2.6,0,5,0,7.8c-1.8,0-3.8,0.1-5.7,0c-1.5-0.1-1.8,0.5-1.8,1.8c0.1,4.3,0,8.6,0,13c0,4.2,0.9,5,5,4.8
		c0.8,0,1.6-0.2,2.4-0.3c0.1,0.2,0.2,0.3,0.2,0.5c0,2.3,0,4.6,0,7.1c-3.6,0.7-7.1,1.2-10.6-0.1c-3.2-1.1-4.9-3.7-5.1-7
		c-0.3-5.1-0.3-10.1-0.4-15.2c0-1.5,0-3,0-4.7c-1.8,0-3.5,0-5.3,0C287.1,32.5,287.1,30,287.1,27.3z"/>
	<path class="st0" d="M346.7,28.3c3,0,5.8,0,8.8,0c0,1.2,0,2.4,0,4.1c3-3.9,6.9-5,11.1-5.6c0,2.9,0,5.7,0,8.6
		c-0.9,0.1-1.8,0.3-2.7,0.4c-6,0.7-8.5,3.4-8.6,9.4c-0.1,4.8,0,9.5,0,14.3c0,0.7,0,1.4,0,2.2c-2.9,0-5.7,0-8.6,0
		C346.7,50.6,346.7,39.5,346.7,28.3z"/>
	<path class="st0" d="M208.4,61.5c-3,0-5.7,0-8.5,0c0-11.1,0-22.2,0-33.3c2.9,0,5.6,0,8.6,0c0,1.3,0,2.5,0,4.3
		c3-3.9,6.9-5.1,11.1-5.6c0,2.9,0,5.7,0,8.6c-1,0.1-2.1,0.3-3.1,0.4c-5.4,0.6-8,3.5-8.1,8.9C208.4,50.2,208.4,55.7,208.4,61.5z"/>
	<path class="st0" d="M56.9,45.7c0-1,0-1.9,0-3c1.9,0,3.7,0,5.5,0c0.8,0,1.2,0.7,1.2,1.5c0,0.9-0.4,1.5-1.2,1.5
		C60.7,45.7,58.8,45.7,56.9,45.7z"/>
	<path class="st0" d="M56.9,27.4c0-1,0-2,0-3c1.9,0,3.7,0,5.5,0c0.7,0,1.2,0.7,1.2,1.5c0,0.9-0.4,1.5-1.4,1.5
		C60.5,27.4,58.8,27.4,56.9,27.4z"/>
	<path class="st0" d="M15.2,42.7c0,1,0,2,0,3c-1.8,0-3.6,0-5.4,0c-0.7,0-1.2-0.7-1.2-1.5c0-0.7,0.4-1.4,1.2-1.4
		C11.6,42.6,13.4,42.7,15.2,42.7z"/>
	<path class="st0" d="M15.2,24.4c0,1,0,2,0,3c-1.8,0-3.5,0-5.3,0c-0.8,0-1.3-0.8-1.3-1.5c0-0.8,0.6-1.4,1.4-1.4
		C11.8,24.4,13.5,24.4,15.2,24.4z"/>
	<path class="st0" d="M34.8,56.5c1,0,2,0,3,0c0,1.8,0,3.5,0,5.3c0,0.8-0.6,1.2-1.6,1.1c-0.9,0-1.4-0.4-1.4-1.3
		C34.8,60,34.8,58.3,34.8,56.5z"/>
	<path class="st0" d="M46.5,13.9c-1.1,0-2,0-3,0c0-1.8,0-3.5,0-5.3c0-0.8,0.6-1.2,1.6-1.1c0.8,0,1.4,0.5,1.4,1.3
		C46.5,10.5,46.5,12.2,46.5,13.9z"/>
	<path class="st0" d="M56.9,33.5c1.9,0,3.7,0,5.5,0c0.8,0,1.3,0.7,1.3,1.6c0,0.9-0.4,1.3-1.3,1.3c-1.8,0-3.6,0-5.4,0
		C56.9,35.4,56.9,34.5,56.9,33.5z"/>
	<path class="st0" d="M43.4,56.5c1.1,0,2,0,3,0c0,1.8,0.1,3.7,0,5.5c-0.1,0.8-0.9,1-1.7,0.9c-0.8-0.1-1.2-0.6-1.2-1.3
		C43.4,60,43.4,58.3,43.4,56.5z"/>
	<path class="st0" d="M34.8,13.9c0-1.8,0-3.5,0-5.1c0-0.9,0.5-1.2,1.4-1.3c1,0,1.6,0.3,1.6,1.1c0.1,1.7,0,3.5,0,5.3
		C36.8,13.9,35.8,13.9,34.8,13.9z"/>
	<path class="st0" d="M15.2,33.5c0,1,0,1.9,0,2.9c-1.8,0-3.7,0.1-5.5,0c-0.7,0-1.1-0.7-1.1-1.4c0-0.7,0.4-1.4,1.2-1.4
		C11.6,33.5,13.4,33.5,15.2,33.5z"/>
	<path class="st0" d="M29,13.9c-1,0-1.9,0-2.9,0c0-1.8,0-3.5,0-5.3c0-0.8,0.5-1.1,1.4-1.1c1,0,1.5,0.3,1.5,1.1
		C29,10.4,29,12.1,29,13.9z"/>
	<path class="st0" d="M26,56.5c1,0,2,0,2.9,0c0,1.8,0,3.6,0,5.3c0,0.8-0.5,1.1-1.5,1.1c-0.9,0-1.4-0.4-1.4-1.2
		C26,60,26,58.3,26,56.5z"/>
</g>
</svg>
